<?xml version="1.0" encoding="utf-8"?>
<!-- Generator: Adobe Illustrator 25.2.1, SVG Export Plug-In . SVG Version: 6.00 Build 0)  -->
<svg version="1.1" xmlns="http://www.w3.org/2000/svg" xmlns:xlink="http://www.w3.org/1999/xlink" x="0px" y="0px"
	 viewBox="0 0 2117.97 1697.69" style="enable-background:new 0 0 2117.97 1697.69;" xml:space="preserve">
<style type="text/css">
	.st0{fill:#EDEDED;stroke:#D3D3D3;stroke-width:2;stroke-miterlimit:10;}
	.st1{fill:none;stroke:#000000;stroke-width:8;stroke-miterlimit:10;}
	.st2{fill:none;stroke:#000000;stroke-width:2;stroke-miterlimit:10;}
</style>
<g id="Layer_5">
	<polygon class="st0" points="209.77,746.31 392.12,739.27 383.51,511.53 199.6,517.01 	"/>
	<polygon class="st0" points="211.34,834.75 398.38,826.14 406.99,1046.83 219.95,1054.66 	"/>
	<polygon class="st0" points="210.56,812.83 398.38,807.35 396.03,757.27 208.21,761.96 	"/>
	<polygon class="st0" points="424.21,972.48 515.75,976.12 877.34,990.48 889.08,534.22 824.12,531.88 826.47,474.75 408.56,466.14 
			"/>
	<path class="st0" d="M279.03,380.44c0.39-25.57,0.78-51.13,1.17-76.7c-54.65-1.17-109.3-2.35-163.96-3.52
		c6.65,268.17,13.3,536.35,19.96,804.52l67.57-2.09c-8.7-239.57-17.39-479.13-26.09-718.7
		C211.47,382.79,245.25,381.62,279.03,380.44z"/>
	<polygon class="st0" points="199.6,495.09 385.08,488.05 381.95,398.05 193.34,401.18 	"/>
	<polygon class="st0" points="115.08,279.09 280.21,285.35 287.25,122.57 287.25,52.92 108.82,60.75 	"/>
	<polygon class="st0" points="297.43,286.14 530.64,294.75 532.21,134.31 309.95,124.14 	"/>
	<path class="st0" d="M296.64,381.62c34.43-2.35,68.87-4.7,103.3-7.04c1.04,20.87,2.09,41.74,3.13,62.61c24,0.78,48,1.57,72,2.35
		c2.09-42.78,4.17-85.57,6.26-128.35c-61.3-2.35-122.61-4.7-183.91-7.04C297.16,329.96,296.9,355.79,296.64,381.62z"/>
	<polygon class="st0" points="493.86,441.88 636.3,446.57 644.12,315.88 496.99,308.05 	"/>
	<polygon class="st0" points="547.08,293.18 774.03,301.01 781.08,142.92 553.34,134.31 	"/>
	<polygon class="st0" points="654.3,446.57 898.47,454.4 904.73,324.48 662.9,315.88 	"/>
	<polygon class="st0" points="793.6,302.57 904.73,304.14 904.73,257.18 795.16,250.14 	"/>
	<path class="st0" d="M798.03,231.35c35.83,1.57,71.65,3.13,107.48,4.7c1.3-29.74,2.61-59.48,3.91-89.22
		c-35.74-1.39-71.48-2.78-107.22-4.17C800.82,172.22,799.43,201.79,798.03,231.35z"/>
	<path class="st0" d="M922.73,237.62c35.83,1.39,71.65,2.78,107.48,4.17c0.35-13.22,0.7-26.43,1.04-39.65
		c-35.65-0.96-71.3-1.91-106.96-2.87L922.73,237.62z"/>
	<path class="st0" d="M925.08,183.62c35.74,1.13,71.48,2.26,107.22,3.39c0.52-13.04,1.04-26.09,1.57-39.13
		c-35.74-1.65-71.48-3.3-107.22-4.96L925.08,183.62z"/>
	<polygon class="st0" points="918.03,498.22 1080.03,501.35 1081.6,409.01 920.38,399.62 	"/>
	<path class="st0" d="M913.34,580.92c55.83,1.91,111.65,3.83,167.48,5.74c0.35-21.91,0.7-43.83,1.04-65.74
		c-55.65-0.87-111.3-1.74-166.96-2.61C914.38,539.18,913.86,560.05,913.34,580.92z"/>
	<polygon class="st0" points="909.43,745.53 1076.12,748.66 1078.47,607.01 911.77,601.53 	"/>
	<polygon class="st0" points="906.3,820.66 1074.56,825.35 1076.12,770.57 907.86,764.31 	"/>
	<polygon class="st0" points="903.16,992.83 1069.86,996.75 1072.99,844.14 907.08,841.01 	"/>
	<path class="st0" d="M890.06,1134.68c60.7,3.3,121.39,6.61,182.09,9.91c0.7-22.96,1.39-45.91,2.09-68.87
		c-60.17-1.74-120.35-3.48-180.52-5.22C892.49,1091.9,891.27,1113.29,890.06,1134.68z"/>
	<path class="st0" d="M1085.19,1018.33c54.26,2.43,108.52,4.87,162.78,7.3c0.17,58.78,0.35,117.57,0.52,176.35
		c-42.61-0.52-85.22-1.04-127.83-1.57c0.52-16.52,1.04-33.04,1.57-49.57c-13.57-1.74-27.13-3.48-40.7-5.22
		C1082.75,1103.2,1083.97,1060.77,1085.19,1018.33z"/>
	<path class="st0" d="M1093.73,994.01c0.91-29.61,1.83-59.22,2.74-88.83l22.7,0.78l0.78-30.52l-25.04-0.78l10.96-489.13l0.78-44.61
		l69.65,3.13l-16.43,651.13C1137.82,994.79,1115.77,994.4,1093.73,994.01z"/>
	<path class="st0" d="M1183.6,1003.01c42.7,1.57,85.39,3.13,128.09,4.7l1.57-107.22l-127.57-3.13
		C1184.99,932.57,1184.3,967.79,1183.6,1003.01z"/>
	<polygon class="st0" points="1332.03,1006.92 1498.73,1010.83 1501.86,904.4 1332.82,901.27 	"/>
	<path class="st0" d="M1520.64,1011.35c50.78,0.52,101.57,1.04,152.35,1.57c0.35-19.65,0.7-39.3,1.04-58.96
		c-32.35-0.35-64.7-0.7-97.04-1.04c0.17-16.35,0.35-32.7,0.52-49.04c-18.43-0.35-36.87-0.7-55.3-1.04
		C1521.69,939.01,1521.16,975.18,1520.64,1011.35z"/>
	<path class="st0" d="M1692.03,1017.88l313.83,3.91c-0.26-35.22-0.52-70.43-0.78-105.65c-103.57-2.61-207.13-5.22-310.7-7.83
		L1692.03,1017.88z"/>
	<path class="st0" d="M1339.08,480.22c-31.57-0.52-63.13-1.04-94.7-1.57c0,6.78,0,13.57,0,20.35c31.3,1.04,62.61,2.09,93.91,3.13
		c-1.3,49.3-2.61,98.61-3.91,147.91c-47.22-1.57-94.43-3.13-141.65-4.7l10.17-410.87l147.13,3.13L1339.08,480.22z"/>
	<polygon class="st0" points="1357.08,651.62 1509.69,656.31 1519.86,243.09 1368.82,239.96 	"/>
	<polygon class="st0" points="1525.34,656.31 1677.95,660.22 1681.86,508.4 1527.69,506.83 	"/>
	<polygon class="st0" points="1531.6,416.05 1685.77,422.31 1691.25,250.92 1539.43,245.44 	"/>
	<polygon class="st0" points="1704.56,426.22 1848.56,430.92 1860.3,254.83 1713.95,250.14 	"/>
	<path class="st0" d="M1865.77,567.09c50.61,1.3,101.22,2.61,151.83,3.91l3.13-156.52l-68.09-0.78c-1.57,28.7-3.13,57.39-4.7,86.09
		c-27.13,0.26-54.26,0.52-81.39,0.78C1866.3,522.75,1866.03,544.92,1865.77,567.09z"/>
	<polygon class="st0" points="1864.47,662.57 2013.16,666.48 2014.73,593.7 1866.82,589.79 	"/>
	<polygon class="st0" points="1869.69,477.88 1876.73,256.4 1937.77,258.75 1929.95,477.88 	"/>
	<polygon class="st0" points="1948.73,394.92 2023.08,395.7 2026.99,257.18 1954.99,257.18 	"/>
	<path class="st0" d="M1528.08,486.48c51.26,1.7,102.52,3.39,153.78,5.09c0.13-3.52,0.26-7.04,0.39-10.57
		c6.78,0.26,13.57,0.52,20.35,0.78c-0.26,3.65-0.52,7.3-0.78,10.96c48.78,1.04,97.57,2.09,146.35,3.13c0-17.35,0-34.7,0-52.04
		c-48.26-0.91-96.52-1.83-144.78-2.74c-0.39,3.78-0.78,7.57-1.17,11.35c-6-0.26-12-0.52-18-0.78c0.13-3.65,0.26-7.3,0.39-10.96
		c-51.78-1.7-103.57-3.39-155.35-5.09C1528.86,452.57,1528.47,469.53,1528.08,486.48z"/>
	<path class="st0" d="M1185.3,830.05c18.13,0.39,36.26,0.78,54.39,1.17c1.3-53.61,2.61-107.22,3.91-160.83
		c-18.26-0.26-36.52-0.52-54.78-0.78C1187.64,723.09,1186.47,776.57,1185.3,830.05z"/>
	<polygon class="st0" points="1258.47,832.4 1580.12,837.09 1584.82,678.22 1262.38,670.4 	"/>
	<polygon class="st0" points="1602.03,838.66 1673.25,839.44 1677.16,680.57 1602.03,679.01 	"/>
	<polygon class="st0" points="1694.38,843.35 1840.73,847.27 1843.08,682.92 1695.95,679.79 	"/>
	<polygon class="st0" points="1699.08,657.09 1844.64,659.44 1846.21,513.09 1700.64,510.75 	"/>
	<polygon class="st0" points="1860.3,891.62 2007.43,894.75 2010.56,689.7 1863.43,686.57 	"/>
	<polygon class="st0" points="1173.95,880.14 1174.73,848.83 1839.95,864.48 1839.16,892.66 	"/>
	<path class="st0" d="M1518.83,1579.77c0.78-156.52,1.57-313.04,2.35-469.57c160.43,3.13,320.87,6.26,481.3,9.39
		c-0.78,116.22-1.57,232.43-2.35,348.65c-33.65,0-67.3,0-100.96,0c-1.17,38.74-2.35,77.48-3.52,116.22
		C1770.04,1582.9,1644.43,1581.34,1518.83,1579.77z"/>
	<path class="st0" d="M1518.56,1087.01c161.65,2.52,323.3,5.04,484.96,7.57c0.61-17.3,1.22-34.61,1.83-51.91
		c-162.09-2.78-324.17-5.57-486.26-8.35C1518.9,1051.88,1518.73,1069.44,1518.56,1087.01z"/>
	<polygon class="st0" points="1178.64,1645.53 1284.3,1647.88 1294.47,1623.62 1322.64,1624.4 1323.43,1431.09 1175.51,1428.75 
		1175.51,1647.09 	"/>
	<polygon class="st0" points="1194.3,1406.83 1246.73,1408.4 1248.3,1223.7 1193.51,1222.14 1189.6,1408.4 	"/>
	<path class="st0" d="M1115.25,1407.09c18.43,1.04,36.87,2.09,55.3,3.13c0.26-21.22,0.52-42.43,0.78-63.65
		c-18.26-0.26-36.52-0.52-54.78-0.78C1116.12,1366.22,1115.69,1386.66,1115.25,1407.09z"/>
	<path class="st0" d="M1265.51,1244.83c21.52,0.39,43.04,0.78,64.57,1.17c0.39-20.74,0.78-41.48,1.17-62.22c-21.65,0-43.3,0-64.96,0
		C1266.03,1204.14,1265.77,1224.48,1265.51,1244.83z"/>
	<path class="st0" d="M1264.99,1407.88c20,0.43,40,0.87,60,1.3c1.39-48.09,2.78-96.17,4.17-144.26c-20.7-0.17-41.39-0.35-62.09-0.52
		C1266.38,1312.22,1265.69,1360.05,1264.99,1407.88z"/>
	<polygon class="st0" points="716.9,1057.01 769.34,1060.14 772.47,1011.62 719.25,1010.05 	"/>
	<path class="st0" d="M1091.38,381.22c-55.57-1.17-111.13-2.35-166.7-3.52c0.39-39.91,0.78-79.83,1.17-119.74
		c14.61,0.26,29.22,0.52,43.83,0.78c-0.52,25.57-1.04,51.13-1.57,76.7c41.48,1.17,82.96,2.35,124.43,3.52
		C1092.16,353.05,1091.77,367.14,1091.38,381.22z"/>
	<polygon class="st0" points="1051.08,311.18 1053.43,160.14 1117.6,159.35 1111.34,312.75 	"/>
	<path class="st0" d="M986.9,313.27c13.57,0.35,27.13,0.7,40.7,1.04c0.35-18.26,0.7-36.52,1.04-54.78c-13.39,0-26.78,0-40.17,0
		C987.95,277.44,987.43,295.35,986.9,313.27z"/>
	<path class="st0" d="M2017.35,1591.12c8.61-34.04,17.22-68.09,25.83-102.13c-41.61,0-83.22,0-124.83,0
		c-0.91,33.52-1.83,67.04-2.74,100.57C1949.52,1590.08,1983.43,1590.6,2017.35,1591.12z"/>
	<polygon class="st0" points="1598.9,933.35 1674.03,934.14 1674.82,908.31 1596.56,906.75 1594.99,934.14 	"/>
	<path class="st0" d="M426.56,978.75c33.39,1.83,66.78,3.65,100.17,5.48c-0.52,9.46-1.04,18.91-1.57,28.37
		c12.52,0.46,25.04,0.91,37.57,1.37l1.57-28.17c18.52,0.26,37.04,0.52,55.57,0.78c0.13,6.39,0.26,12.78,0.39,19.17
		c26.09,0.39,52.17,0.78,78.26,1.17c-0.78,18.26-1.57,36.52-2.35,54.78c-89.87-4.83-179.74-9.65-269.61-14.48
		C426.56,1024.4,426.56,1001.57,426.56,978.75z"/>
	<polygon class="st0" points="1135.08,318.48 1178.38,320.57 1182.56,231.35 1140.82,229.79 	"/>
	<path class="st0" d="M894.56,1054.27c17.74,0.39,35.48,0.78,53.22,1.17c0.17-14.52,0.35-29.04,0.52-43.57
		c-17.65-0.48-35.3-0.96-52.96-1.43C895.08,1025.05,894.82,1039.66,894.56,1054.27z"/>
	<path class="st0" d="M963.03,1054.66c15.96,0.17,31.91,0.35,47.87,0.52c0.22-14,0.43-28,0.65-42c-16.39,0.09-32.78,0.17-49.17,0.26
		C962.6,1027.18,962.82,1040.92,963.03,1054.66z"/>
	<path class="st0" d="M1027.21,1056.22c13.83,0.39,27.65,0.78,41.48,1.17c0.26-14.48,0.52-28.96,0.78-43.43
		c-13.96,0.13-27.91,0.26-41.87,0.39C1027.47,1028.31,1027.34,1042.27,1027.21,1056.22z"/>
	<path class="st0" d="M1116.82,1328.05c17.74,0.87,35.48,1.74,53.22,2.61c0.87-40.87,1.74-81.74,2.61-122.61
		c-17.91-0.17-35.83-0.35-53.74-0.52C1118.21,1247.7,1117.51,1287.88,1116.82,1328.05z"/>
	<path class="st0" d="M787.6,1080.75c-122.61-6.43-245.22-12.87-367.83-19.3l-211.3,10.43l1.57,30.26l120.52-4.17l544.7,37.04
		l4.7-125.74l-88.7-1.57L787.6,1080.75z"/>
	<path class="st1" d="M835.47,515.05"/>
	<path class="st0" d="M833.51,515.18c20.35,0.17,40.7,0.35,61.04,0.52c0.35-14.78,0.7-29.57,1.04-44.35
		c-20.17-0.17-40.35-0.35-60.52-0.52C834.56,485.62,834.03,500.4,833.51,515.18z"/>
	<path class="st0" d="M2017.6,1093.79c16.26,0,32.52,0,48.78,0l4.7-101.74c-6.26-0.17-12.52-0.35-18.78-0.52
		c0.87-36,1.74-72,2.61-108c-9.74-0.17-19.48-0.35-29.22-0.52c-1.91,46.26-3.83,92.52-5.74,138.78c7.43-0.26,14.87-0.52,22.3-0.78
		c-0.13,4.96-0.26,9.91-0.39,14.87c-7.17,0.13-14.35,0.26-21.52,0.39C2019.43,1055.44,2018.51,1074.62,2017.6,1093.79z"/>
	<polygon class="st0" points="1254.56,1165.01 1349.64,1166.96 1347.3,1282.01 1500.69,1285.14 1503.43,1031.96 1256.12,1028.05 	
		"/>
</g>
<g id="Layer_2">
	<polyline class="st1" points="211.84,1041.26 212.63,1064.73 417.67,1056.91 391.84,389.34 187.58,394.04 189.15,450.39 	"/>
	<polyline class="st1" points="189.93,484.04 190.73,505.95 191.5,527.08 200.11,704.73 	"/>
	<line class="st1" x1="190.73" y1="505.95" x2="396.54" y2="498.91"/>
	<line class="st1" x1="200.11" y1="736.43" x2="200.89" y2="766.95"/>
	<path class="st1" d="M405.15,749.34"/>
	<path class="st1" d="M204.02,755.6"/>
	<line class="st1" x1="204.02" y1="840.12" x2="202.45" y2="798.65"/>
	<line class="st1" x1="204.02" y1="824.47" x2="409.06" y2="817.43"/>
	<path class="st1" d="M203.24,836.99"/>
	<path class="st1" d="M204.02,836.99c2.35,56.61,4.7,113.22,7.04,169.83"/>
	<polygon class="st1" points="535.06,1005.91 554.37,1006.95 555.41,988.23 536.14,987.45 	"/>
	<line class="st1" x1="417.67" y1="1056.91" x2="647.24" y2="1068.65"/>
	<line class="st1" x1="624.8" y1="996.65" x2="890.37" y2="1003.95"/>
	<line class="st1" x1="884.89" y1="1087.43" x2="886.06" y2="1052.8"/>
	<polyline class="st1" points="887.76,1063.43 955.58,1064.99 1080.34,1066.4 	"/>
	<path class="st1" d="M886.19,1003.95c70.26,1.39,140.52,2.78,210.78,4.17"/>
	<polyline class="st1" points="891.41,1001.34 904.45,508.3 1092.67,512.99 1090.71,597.52 1055.5,596.34 	"/>
	<line class="st1" x1="1024.58" y1="595.95" x2="903.28" y2="592.04"/>
	<polyline class="st1" points="899.37,755.99 1086.8,761.08 1089.54,641.73 	"/>
	<path class="st1" d="M1086.8,761.47c-0.78,31.37-1.57,62.74-2.35,94.11"/>
	<line class="st1" x1="1079.76" y1="1006.04" x2="1082.89" y2="886.69"/>
	<line class="st1" x1="897.02" y1="829.95" x2="1017.15" y2="833.08"/>
	<line class="st1" x1="1084.84" y1="834.26" x2="1047.67" y2="833.86"/>
	<polyline class="st1" points="697.06,1071.78 781.58,1074.91 781.58,1063.95 	"/>
	<line class="st1" x1="784.71" y1="1000.56" x2="782.37" y2="1032.65"/>
	<line class="st1" x1="705.67" y1="1072.56" x2="708.8" y2="1001.34"/>
	<polyline class="st1" points="488.89,342.78 492.02,302.47 913.06,314.99 912.77,334.56 	"/>
	<polyline class="st1" points="394.19,448.04 909.93,466.04 911.76,368.99 	"/>
	<path class="st1" d="M108.54,290.73"/>
	<line class="st1" x1="645.41" y1="456.65" x2="650.89" y2="357.26"/>
	<line class="st1" x1="651.67" y1="310.3" x2="651.67" y2="322.82"/>
	<path class="st1" d="M302.89,112.82c-3.83,42.96-7.65,85.91-11.48,128.87"/>
	<line class="st1" x1="538.71" y1="304.3" x2="545.5" y2="123.26"/>
	<line class="st1" x1="792.8" y1="133.17" x2="786.02" y2="262.56"/>
	<line class="st1" x1="784.45" y1="311.6" x2="784.98" y2="294.91"/>
	<line class="st1" x1="914.37" y1="265.17" x2="920.11" y2="137.86"/>
	<line class="st1" x1="787.06" y1="242.73" x2="859.58" y2="245.86"/>
	<polyline class="st1" points="892.45,246.91 915.41,246.91 949.84,247.69 	"/>
	<polyline class="st1" points="1183.84,480.12 1176.02,840.12 1199.5,840.91 	"/>
	<line class="st1" x1="1181.5" y1="659.34" x2="1208.11" y2="660.12"/>
	<line class="st1" x1="1243.32" y1="660.12" x2="1854.54" y2="674.99"/>
	<path class="st1" d="M2024.37,678.91"/>
	<path class="st1" d="M1850.37,869.86l3.39-194.87c1.04-60.52,2.09-121.04,3.13-181.57l0.26-2.87l81.91,2.09c3.13,0,3.13,0,3.13,0"
		/>
	<polyline class="st1" points="1234.71,842.47 1592.37,849.52 1595.5,670.3 	"/>
	<line class="st1" x1="1248.8" y1="840.12" x2="1251.15" y2="767.34"/>
	<line class="st1" x1="1254.28" y1="660.91" x2="1251.93" y2="734.47"/>
	<line class="st1" x1="1344.28" y1="662.47" x2="1346.63" y2="586.56"/>
	<line class="st1" x1="1348.19" y1="552.91" x2="1349.76" y2="477.78"/>
	<line class="st1" x1="1249.58" y1="491.08" x2="1348.98" y2="493.43"/>
	<line class="st1" x1="1349.76" y1="436.3" x2="1360.71" y2="228.91"/>
	<line class="st1" x1="1515.67" y1="667.17" x2="1516.45" y2="592.04"/>
	<line class="st1" x1="1518.02" y1="556.04" x2="1519.58" y2="482.47"/>
	<line class="st1" x1="1520.37" y1="497.34" x2="1548.54" y2="497.34"/>
	<polyline class="st1" points="1579.84,498.91 1691.76,502.04 1689.67,561.52 	"/>
	<polyline class="st1" points="1690.19,596.73 1688.63,670.3 1684.71,852.65 1626.02,850.3 	"/>
	<line class="st1" x1="1520.37" y1="441.39" x2="1530.93" y2="235.95"/>
	<line class="st1" x1="1704.67" y1="239.47" x2="1694.11" y2="446.08"/>
	<line class="st1" x1="1696.45" y1="434.34" x2="1795.06" y2="437.08"/>
	<line class="st1" x1="1858.45" y1="451.95" x2="1867.84" y2="246.52"/>
	<line class="st1" x1="1859.04" y1="579.91" x2="2028.67" y2="581.08"/>
	<line class="st1" x1="2027.24" y1="679.95" x2="1887.41" y2="676.3"/>
	<path class="st1" d="M1850.63,858.12c-11.54-0.33-23.09-0.65-34.63-0.98"/>
	<path class="st1" d="M1785.67,855.78c-33.57-1.04-67.13-2.09-100.7-3.13"/>
	<line class="st1" x1="1694.89" y1="502.04" x2="1796.63" y2="503.08"/>
	<line class="st1" x1="1826.89" y1="504.12" x2="1854.54" y2="504.65"/>
	<polyline class="st1" points="1940.63,464.47 1943.24,404.47 2032.45,406.04 	"/>
	<line class="st1" x1="1583.76" y1="430.04" x2="1693.84" y2="433.69"/>
	<line class="st1" x1="1548.28" y1="429.52" x2="1521.67" y2="428.47"/>
	<line class="st1" x1="1092.67" y1="512.6" x2="1093.84" y2="466.04"/>
	<polyline class="st1" points="1094.63,424.56 1094.63,394.82 912.28,390.12 	"/>
	<polyline class="st1" points="1042.98,143.6 1036.71,324.39 981.15,322.82 975.67,322.82 	"/>
	<polyline class="st1" points="1088.37,330.65 1124.35,331.92 1154.89,332.99 	"/>
	<line class="st1" x1="1132.98" y1="220.69" x2="1124.35" y2="331.92"/>
	<path class="st1" d="M979.98,287.8c0.33-12.33,0.65-24.65,0.98-36.98c18.59,0.33,37.17,0.65,55.76,0.98"/>
	<line class="st1" x1="919.32" y1="192.91" x2="957.28" y2="193.89"/>
	<path class="st1" d="M972.74,194.47c22.63,0.52,45.26,1.04,67.89,1.57"/>
	<polygon class="st1" points="1668.28,1438.56 1685.69,1439.21 1686.02,1417.17 1668.8,1416.65 	"/>
	<path class="st1" d="M1839.93,1434.39"/>
	<path class="st1" d="M2019.28,906.26l-845.22-17.61c-0.3,42.09-0.61,84.17-0.91,126.26c38.26,0.63,76.52,1.26,114.78,1.89"/>
	<polyline class="st1" points="1323.93,892.82 1322.63,1018.82 1340.37,1019.34 	"/>
	<line class="st1" x1="1367.76" y1="1020.12" x2="1389.48" y2="1020.52"/>
	<line class="st1" x1="1416.28" y1="1020.65" x2="1484.11" y2="1021.17"/>
	<line class="st1" x1="1511.76" y1="1022.21" x2="1513.84" y2="897.52"/>
	<line class="st1" x1="1548.8" y1="1024.3" x2="1597.65" y2="1025.02"/>
	<line class="st1" x1="1622.11" y1="1025.8" x2="1638.74" y2="1026.39"/>
	<line class="st1" x1="1665.15" y1="1026.39" x2="1698.02" y2="1026.78"/>
	<line class="st1" x1="1721.5" y1="1027.95" x2="1742.89" y2="1028.47"/>
	<line class="st1" x1="1768.45" y1="1029.52" x2="1788.8" y2="1030.04"/>
	<line class="st1" x1="1814.89" y1="1030.56" x2="1835.24" y2="1031.08"/>
	<line class="st1" x1="1863.41" y1="1031.08" x2="1885.32" y2="1031.6"/>
	<line class="st1" x1="1913.63" y1="1032.26" x2="1936.32" y2="1032.45"/>
	<path class="st1" d="M1962.54,1034.21"/>
	<line class="st1" x1="1983.48" y1="1033.62" x2="1960.98" y2="1033.23"/>
	<line class="st1" x1="1683.41" y1="1024.3" x2="1686.02" y2="900.65"/>
	<line class="st1" x1="1507.45" y1="1294.82" x2="1507.65" y2="1271.99"/>
	<line class="st1" x1="1507.65" y1="1274.73" x2="1509.67" y2="1112.99"/>
	<polyline class="st1" points="1509.67,1114.56 1510,1097.34 1510.19,1087.43 	"/>
	<path class="st1" d="M1586.37,1093.69"/>
	<line class="st1" x1="1512.8" y1="1098.39" x2="1868.11" y2="1106.21"/>
	<line class="st1" x1="1903.06" y1="1107.78" x2="2014.71" y2="1109.34"/>
	<path class="st1" d="M2013.41,1037.34l24.65-787.1l-905.09-29.55l1.17-76.3l-831.13-30.52l-7.04-73.96L99.93,51.65l29.74,1062.39
		l197.22-6.26l91.57,6.26l694.17,45.39l-6.26,256.7l59.48,3.52v241.43h133.83l10.57-24.65l22.3,1.17l5.87-346.3l169.04,3.52v294.65
		l515.35,9.39l29.35-113.87l5.87-208.96l-45.1-1.17c0.55-57.82,1.11-115.63,1.66-173.45"/>
	<line class="st1" x1="1184.63" y1="434.73" x2="1192.98" y2="224.47"/>
	<line class="st1" x1="1507.45" y1="1294.82" x2="1560.8" y2="1294.04"/>
	<line class="st1" x1="1607.24" y1="1296.12" x2="1737.15" y2="1297.69"/>
	<line class="st1" x1="1778.37" y1="1299.78" x2="1870.19" y2="1301.34"/>
	<line class="st1" x1="1916.63" y1="1300.3" x2="1962.02" y2="1300.82"/>
	<line class="st1" x1="2013.02" y1="1275.26" x2="2010.67" y2="1386.78"/>
	<polyline class="st1" points="2009.89,1412.99 2009.89,1435.69 2054.11,1436.47 	"/>
	<polyline class="st1" points="1936.98,1480.04 1909.71,1480.17 1909.71,1490.99 	"/>
	<line class="st1" x1="1910.11" y1="1517.08" x2="1907.76" y2="1595.34"/>
	<line class="st1" x1="2051.76" y1="1481.08" x2="1963.32" y2="1480.3"/>
	<polyline class="st1" points="2015.76,1105.43 2075.24,1105.43 2079.93,983.34 2059.58,983.34 2061.93,897.26 	"/>
	<line class="st1" x1="1338.41" y1="1291.3" x2="1340.37" y2="1174.3"/>
	<path class="st1" d="M1306.13,1177.04c-15.59-0.07-31.17-0.13-46.76-0.2c-0.65,29.15-1.3,58.3-1.96,87.46"/>
	<line class="st1" x1="1334.89" y1="1421.6" x2="1232.37" y2="1420.04"/>
	<line class="st1" x1="1254.28" y1="1420.82" x2="1256.63" y2="1292.47"/>
	<line class="st1" x1="1258.98" y1="1255.69" x2="1335.93" y2="1256.47"/>
	<line class="st1" x1="1183.84" y1="1211.86" x2="1179.93" y2="1377.78"/>
	<polyline class="st1" points="1165.84,1419.65 1179.93,1419.48 1199.5,1419.26 	"/>
	<line class="st1" x1="1180.71" y1="1339.43" x2="1108.71" y2="1337.86"/>
	<path class="st1" d="M2015.11,1029.12c8.09,0.17,16.17,0.35,24.26,0.52"/>
	<line class="st1" x1="1944.54" y1="363.52" x2="1948.45" y2="251.6"/>
	<polyline class="st1" points="1586.89,923.86 1586.89,942.65 1682.37,943.82 	"/>
	<polygon class="st1" points="1831.06,1440.39 1850.63,1440.39 1851.02,1418.99 1831.45,1418.99 	"/>
	<path class="st1" d="M884.11,1120.3"/>
	<path class="st1" d="M882.93,1144.17"/>
	<line class="st1" x1="485.37" y1="449.6" x2="488.5" y2="372.91"/>
	<line class="st1" x1="1180.98" y1="1407.78" x2="1180.98" y2="1420.3"/>
	<line class="st1" x1="1084.32" y1="890.73" x2="1108.71" y2="891.65"/>
	<line class="st1" x1="1256.63" y1="1214.99" x2="1216.19" y2="1214.21"/>
	<line class="st1" x1="287.76" y1="387.78" x2="288.54" y2="368.99"/>
	<path class="st1" d="M289.32,300.12"/>
	<polyline class="st1" points="287.76,314.99 288.28,295.95 289.32,280.3 	"/>
	<line class="st1" x1="901.32" y1="525.52" x2="834.54" y2="523.95"/>
	<line class="st1" x1="1077.41" y1="1008.12" x2="1077.15" y2="1030.3"/>
	<line class="st1" x1="887.76" y1="1004.47" x2="887.24" y2="1023.78"/>
	<line class="st1" x1="955.84" y1="1004.73" x2="955.58" y2="1022.21"/>
	<line class="st1" x1="955.58" y1="1064.99" x2="955.71" y2="1052.02"/>
	<line class="st1" x1="1019.69" y1="1054.76" x2="1019.5" y2="1066.49"/>
	<line class="st1" x1="1020.8" y1="1008.65" x2="1020.54" y2="1023.52"/>
	<line class="st1" x1="1691.76" y1="502.04" x2="1692.54" y2="489.52"/>
	<line class="st1" x1="412.98" y1="300.12" x2="175.06" y2="293.86"/>
	<line class="st1" x1="108.54" y1="290.73" x2="146.11" y2="292.3"/>
	<line class="st1" x1="405.15" y1="749.34" x2="264.28" y2="754.04"/>
	<line class="st1" x1="235.32" y1="754.43" x2="200.89" y2="755.6"/>
	<path class="st1" d="M1076.72,1054.95c-0.13,4.34-0.26,8.67-0.39,13.01"/>
</g>
<g id="Layer_4">
	<line class="st2" x1="1031.31" y1="1091.17" x2="926.83" y2="1088.82"/>
	<line class="st2" x1="937.92" y1="1097.56" x2="927.49" y2="1088.43"/>
	<line class="st2" x1="938.44" y1="1080.6" x2="927.75" y2="1088.8"/>
	<line class="st2" x1="925.46" y1="1117.93" x2="1029.94" y2="1120.28"/>
	<line class="st2" x1="1018.86" y1="1111.54" x2="1029.29" y2="1120.67"/>
	<line class="st2" x1="1018.33" y1="1128.49" x2="1029.03" y2="1120.3"/>
	<line class="st2" x1="1133.83" y1="1218.26" x2="1131.49" y2="1322.74"/>
	<line class="st2" x1="1140.23" y1="1311.65" x2="1131.09" y2="1322.08"/>
	<line class="st2" x1="1123.27" y1="1311.13" x2="1131.47" y2="1321.82"/>
	<line class="st2" x1="1156.67" y1="1321.2" x2="1158.22" y2="1216.71"/>
	<line class="st2" x1="1149.57" y1="1227.86" x2="1158.62" y2="1217.36"/>
	<line class="st2" x1="1166.53" y1="1228.26" x2="1158.25" y2="1217.63"/>
	<line class="st2" x1="1073.47" y1="185.48" x2="1071.12" y2="289.96"/>
	<line class="st2" x1="1079.86" y1="278.87" x2="1070.73" y2="289.31"/>
	<line class="st2" x1="1062.9" y1="278.35" x2="1071.1" y2="289.05"/>
	<line class="st2" x1="1096.3" y1="288.43" x2="1097.86" y2="183.94"/>
	<line class="st2" x1="1089.2" y1="195.09" x2="1098.25" y2="184.58"/>
	<line class="st2" x1="1106.16" y1="195.48" x2="1097.88" y2="184.85"/>
	<line class="st2" x1="2031.77" y1="888.27" x2="2029.42" y2="992.74"/>
	<line class="st2" x1="2038.16" y1="981.66" x2="2029.03" y2="992.09"/>
	<line class="st2" x1="2021.21" y1="981.13" x2="2029.41" y2="991.83"/>
	<line class="st2" x1="2045.21" y1="991.6" x2="2046.77" y2="887.11"/>
	<line class="st2" x1="2038.11" y1="898.26" x2="2047.16" y2="887.76"/>
	<line class="st2" x1="2055.07" y1="898.66" x2="2046.79" y2="888.02"/>
</g>
</svg>
