<?xml version="1.0" encoding="utf-8"?>
<!-- Generator: Adobe Illustrator 25.2.1, SVG Export Plug-In . SVG Version: 6.00 Build 0)  -->
<svg version="1.1" xmlns="http://www.w3.org/2000/svg" xmlns:xlink="http://www.w3.org/1999/xlink" x="0px" y="0px"
	 viewBox="0 0 2186.84 1769.69" style="enable-background:new 0 0 2186.84 1769.69;" xml:space="preserve">
<style type="text/css">
	.st0{fill:#EDEDED;stroke:#D3D3D3;stroke-width:2;stroke-miterlimit:10;}
	.st1{fill:none;stroke:#000000;stroke-width:8;stroke-miterlimit:10;}
	.st2{fill:none;stroke:#000000;stroke-width:2;stroke-miterlimit:10;}
	.st3{fill:none;stroke:#757679;stroke-width:2;stroke-miterlimit:10;}
</style>
<g id="Layer_5">
	<polygon class="st0" points="859.72,960.32 861.28,735.71 1024.85,736.49 1024.85,961.1 	"/>
	<polygon class="st0" points="860.5,714.58 861.28,491.53 1023.28,488.4 1024.07,716.14 	"/>
	<path class="st0" d="M860.5,469.62v-103.3l165.91-1.57c-0.47,35.09-0.94,70.19-1.41,105.28
		C970.17,469.9,915.33,469.76,860.5,469.62z"/>
	<polygon class="st0" points="729.02,274.75 732.93,111.97 963.8,111.19 963.02,276.32 	"/>
	<polygon class="st0" points="484.07,274.75 485.63,109.62 710.24,109.62 707.89,273.97 	"/>
	<polygon class="st0" points="235.2,270.84 235.98,111.97 463.72,109.62 464.5,273.97 	"/>
	<path class="st0" d="M43.22,192.21c57.91-0.13,115.83-0.26,173.74-0.39c0.13-33.13,0.26-66.26,0.39-99.39
		c4.04-0.52,8.09-1.04,12.13-1.57c-0.78-21.78-1.57-43.57-2.35-65.35C162.57,31.64,98,37.77,33.43,43.9
		C36.7,93.34,39.96,142.77,43.22,192.21z"/>
	<polygon class="st0" points="46.59,272.4 42.67,210.58 153.8,209.01 152.24,273.97 	"/>
	<polygon class="st0" points="167.89,273.19 217.98,272.4 218.76,209.01 168.67,209.01 	"/>
	<polygon class="st0" points="163.2,1092.58 114.67,291.19 48.93,290.4 94.33,1094.93 	"/>
	<path class="st0" d="M167.89,1091.8l-2.35-29.74l203.48-14.09l131.48,3.13l3.91-72.78c109.3,0.26,218.61,0.52,327.91,0.78
		c-1.3,42-2.61,84-3.91,126c-184.43-6.52-368.87-13.04-553.3-19.57C239.37,1087.62,203.63,1089.71,167.89,1091.8z"/>
	<polygon class="st0" points="124.07,372.58 339.28,358.49 340.07,423.45 843.28,427.36 843.28,348.32 1039.72,348.32 
		1038.93,296.67 120.15,291.97 	"/>
	<polygon class="st0" points="980.24,277.88 1054.59,277.88 1056.93,111.19 982.59,110.4 	"/>
	<polygon class="st0" points="1046.76,298.62 1046.76,960.71 1113.67,959.53 1114.85,299.8 	"/>
	<polygon class="st0" points="1133.63,606.19 1962.41,606.19 1962.41,194.14 1135.98,189.45 	"/>
	<path class="st0" d="M1133,789.73c65.17-0.53,130.33-1.06,195.5-1.59c-0.34-54.12-0.68-108.25-1.02-162.37
		c-64.17,0.13-128.35,0.26-192.52,0.39C1134.3,680.69,1133.65,735.21,1133,789.73z"/>
	<path class="st0" d="M1349.63,789.32l176.09,1.17c0.14-55.17,0.28-110.33,0.41-165.5c-58.96,0.17-117.91,0.35-176.87,0.52
		C1349.38,680.11,1349.51,734.72,1349.63,789.32z"/>
	<path class="st0" d="M1544.5,791.67h79.83v-166.7c-26.56-0.12-53.12-0.25-79.67-0.37C1544.6,680.29,1544.55,735.98,1544.5,791.67z"
		/>
	<path class="st0" d="M1130.13,872.3c165.74-0.35,331.48-0.7,497.22-1.04c0.17-20.52,0.35-41.04,0.52-61.57
		c-166.61-0.52-333.22-1.04-499.83-1.57C1128.74,829.51,1129.43,850.9,1130.13,872.3z"/>
	<polygon class="st0" points="1644.28,960.71 1962.41,957.19 1962.41,626.14 1643.11,626.14 	"/>
	<polygon class="st0" points="1151.24,1371.58 1152.41,1168.49 1282.72,1167.32 1285.07,1370.4 	"/>
	<polygon class="st0" points="1137.15,1615.75 1133.63,1491.32 1159.46,1491.32 1160.63,1386.84 1288.59,1388.01 1289.76,1584.06 
		1260.41,1586.4 1253.37,1614.58 	"/>
	<polygon class="st0" points="1305.02,1585.23 1360.2,1585.23 1359.02,1494.84 1302.67,1493.67 	"/>
	<polygon class="st0" points="1950.67,1555.88 1927.2,1748.4 1273.33,1748.4 1275.67,1605.19 1378.98,1604.01 1378.98,1554.71 	"/>
	<polygon class="st0" points="1307.37,1473.71 1376.63,1473.71 1376.63,1545.32 1454.11,1546.49 1449.41,1167.32 1302.67,1168.49 	
		"/>
	<path class="st0" d="M1467.37,960.93c7.63,0.07,15.26,0.13,22.89,0.2c-0.46-24.2-0.91-48.39-1.37-72.59
		c-7.57,0.07-15.13,0.13-22.7,0.2C1466.59,912.8,1466.98,936.86,1467.37,960.93z"/>
	<path class="st0" d="M1503.76,960.93c8.87,0,17.74,0,26.61,0c-0.07-24.13-0.13-48.26-0.2-72.39c-9.2,0.13-18.39,0.26-27.59,0.39
		C1502.98,912.93,1503.37,936.93,1503.76,960.93z"/>
	<polygon class="st0" points="1890.8,1157.93 1890.8,1049.93 1962.41,1049.93 1962.41,1155.58 	"/>
	<path class="st0" d="M1469.37,1178.67h94.7v-126h305.22v122.87h93.91v361.57h-489.91
		C1473.28,1537.1,1470.93,1178.67,1469.37,1178.67z"/>
	<polygon class="st0" points="1145.37,1302.06 1145.37,1371.97 1075.46,1371.45 1074.41,1297.88 	"/>
	<polygon class="st0" points="1073.89,1292.14 1135.46,1294.23 1135.46,1166.4 1073.37,1167.45 	"/>
	<path class="st0" d="M1041.96,1112.3c11.25,0.21,22.51,0.42,33.76,0.63l1.57,47.74l468-3.13c0.26-60.78,0.52-121.57,0.78-182.35
		c-168.21,0.83-336.42,1.67-504.63,2.5C1041.61,1022.56,1041.78,1067.43,1041.96,1112.3z"/>
	<path class="st0" d="M846.57,1104.73c62.82,2.47,125.64,4.94,188.46,7.41v-68.87c-62.3-0.38-124.59-0.77-186.89-1.15
		C847.61,1062.99,847.09,1083.86,846.57,1104.73z"/>
	<polygon class="st0" points="849.54,1025.27 902.76,1024.49 902.76,978.32 848.76,979.1 	"/>
	<polygon class="st0" points="920.76,1023.71 966.15,1024.49 966.15,979.88 920.76,978.32 	"/>
	<polygon class="st0" points="981.8,1024.49 1022.5,1023.71 1023.28,978.32 983.37,978.32 	"/>
	<polygon class="st0" points="176.5,1041.71 364.33,1029.97 348.67,806.93 162.41,819.45 	"/>
	<polygon class="st0" points="161.63,800.67 347.89,787.36 343.98,736.49 157.72,749.8 	"/>
	<polygon class="st0" points="157.72,733.36 343.2,720.06 327.54,489.97 142.07,503.27 	"/>
	<polygon class="st0" points="142.07,486.06 325.98,471.97 322.85,431.27 323.63,378.84 133.46,389.8 	"/>
	<path class="st0" d="M1070.24,277.1l3.13-165.91l306.78,0.78l-0.78,12.52h16.43v-12.52l481.3,5.48l0.78,54h-483.65v-8.61
		l-17.22,0.78v8.61l-260.61-2.35c-0.78,35.74-1.57,71.48-2.35,107.22C1099.46,277.1,1084.85,277.1,1070.24,277.1z"/>
	<polygon class="st0" points="1898.24,169.88 1963.2,170.67 1963.98,119.01 1899.02,118.23 	"/>
	<polygon class="st0" points="1549.2,957.19 1625.89,957.19 1625.89,894.58 1547.63,894.58 	"/>
	<path class="st0" d="M1981.35,437.95c55.83,0.26,111.65,0.52,167.48,0.78c0.13-46.3,0.26-92.61,0.39-138.91
		c-55.96-0.39-111.91-0.78-167.87-1.17C1981.35,345.08,1981.35,391.51,1981.35,437.95z"/>
	<path class="st0" d="M1982.13,279.47c55.57,0.26,111.13,0.52,166.7,0.78c0.78-53.48,1.57-106.96,2.35-160.43
		c-56.09-0.13-112.17-0.26-168.26-0.39C1982.65,172.77,1982.39,226.12,1982.13,279.47z"/>
	<polygon class="st0" points="1980.67,699.97 1980.67,624.84 2025.02,623.8 2025.02,603.97 1979.11,560.14 1979.11,529.88 
		2151.28,527.27 2151.28,606.06 2137.2,606.06 2137.72,621.19 2152.85,621.19 2152.85,700.49 	"/>
	<polygon class="st0" points="1979.63,514.75 2151.28,514.23 2152.33,455.27 1979.63,455.27 	"/>
	<polygon class="st0" points="2067.8,786.58 2154.93,785.53 2153.89,715.62 2067.28,715.62 	"/>
	<polygon class="st0" points="1979.11,957.19 2153.37,958.75 2153.37,801.71 2051.63,802.23 2050.59,717.19 1978.07,717.71 	"/>
	<polygon class="st0" points="1980.15,1097.53 2010.93,1098.58 2011.46,1049.01 1978.59,1048.49 	"/>
	<path class="st0" d="M2061.41,1125.45c31,0.09,62,0.17,93,0.26c0.04-25.78,0.09-51.57,0.13-77.35
		c-31.04,0.39-62.09,0.78-93.13,1.17C2061.41,1074.84,2061.41,1100.14,2061.41,1125.45z"/>
	<path class="st0" d="M2110.72,1156.36c0.05-5.38,0.1-10.77,0.15-16.15c14.56,0.17,29.12,0.33,43.67,0.5
		c0.05,5.09,0.1,10.19,0.15,15.28C2140.04,1156.11,2125.38,1156.24,2110.72,1156.36z"/>
	<polygon class="st0" points="1978.85,1157.93 2011.72,1157.93 2011.72,1114.1 1978.07,1113.32 	"/>
	<polygon class="st0" points="2058.67,1158.71 2059.07,1140.71 2097.41,1140.32 2097.02,1157.93 	"/>
	<polygon class="st0" points="1980.02,1378.62 1979.63,1171.62 2008.98,1170.84 2008.59,1378.62 	"/>
	<polygon class="st0" points="2061.41,1224.84 2061.41,1172.01 2154.54,1169.27 2154.54,1224.84 	"/>
	<polygon class="st0" points="2061.8,1284.71 2061.8,1239.32 2154.54,1237.75 2154.54,1284.32 	"/>
	<polygon class="st0" points="1981.72,1419.45 1981.2,1392.32 2023.46,1392.32 2023.46,1300.49 2151.8,1298.93 2151.8,1416.32 	"/>
	<path class="st0" d="M2023.51,1294.42c0.63-85.15,1.26-170.3,1.89-255.46c6.22,0,12.43,0,18.65,0
		c0.75,85.05,1.5,170.11,2.25,255.16C2038.71,1294.22,2031.11,1294.32,2023.51,1294.42z"/>
	<polygon class="st0" points="1983.8,1547.8 2037.54,1547.8 2035.98,1490.4 1982.24,1489.88 	"/>
	<polygon class="st0" points="1982.76,1475.27 2042.76,1475.8 2041.2,1434.06 1981.2,1433.53 	"/>
	<polygon class="st0" points="2089.72,1546.23 2087.11,1433.53 2151.28,1432.49 2146.07,1546.23 	"/>
	<path class="st0" d="M2053.45,1557.27c8.8-0.33,17.61-0.65,26.41-0.98c-2.25-17.02-4.5-34.04-6.75-51.07
		c-0.33-27.75-0.65-55.5-0.98-83.25c-8.22,0.07-16.43,0.13-24.65,0.2C2049.47,1467.21,2051.46,1512.24,2053.45,1557.27z"/>
	<path class="st0" d="M1554.67,1032.32v-52.43l408.52-7.04v17.22l17.22,0.78v-17.22c57.79,0.14,115.58,0.28,173.37,0.41
		c0.12,19.43,0.25,38.86,0.37,58.28C1954.33,1032.32,1754.5,1032.32,1554.67,1032.32z"/>
	<path class="st0" d="M1132.07,891.45c105.65-0.26,211.3-0.52,316.96-0.78c0.52,24,1.04,48,1.57,72
		c-106.17,0.52-212.35,1.04-318.52,1.57C1132.07,939.97,1132.07,915.71,1132.07,891.45z"/>
	<path class="st0" d="M1962.41,1619.8c1.74-18.78,3.48-37.57,5.22-56.35c59.65-0.87,119.3-1.74,178.96-2.61
		c-1.57,19.13-3.13,38.26-4.7,57.39C2082.07,1618.75,2022.24,1619.27,1962.41,1619.8z"/>
	<polygon class="st0" points="1953.02,1685.01 2077.72,1699.62 2077.2,1632.84 1958.76,1634.4 	"/>
	<polygon class="st0" points="2092.33,1700.14 2135.63,1705.36 2141.37,1632.84 2091.28,1632.32 	"/>
</g>
<g id="Layer_2">
	<path class="st1" d="M1124.37,364.27c-0.57,144.94-1.13,289.88-1.7,434.83c7.3,0,14.61,0,21.91,0"/>
	<line class="st1" x1="1126.37" y1="616.27" x2="1143.37" y2="616.27"/>
	<line class="st1" x1="1177.37" y1="615.27" x2="1346.37" y2="614.27"/>
	<line class="st1" x1="1383.37" y1="615.27" x2="1553.37" y2="615.27"/>
	<polyline class="st1" points="1535.37,617.27 1535.37,800.27 1576.37,800.27 	"/>
	<polyline class="st1" points="1607.28,801.84 1635.28,801.84 1635.28,819.84 	"/>
	<polyline class="st1" points="1635.83,867.99 1636.22,968.17 1537.37,968.27 1537.37,881.27 1122.37,882.27 1122.37,864.27 
		1122.37,973.27 	"/>
	<line class="st1" x1="1672.37" y1="968.27" x2="2014.37" y2="965.27"/>
	<polyline class="st1" points="2062.37,966.27 2160.37,966.27 2160.37,655.27 	"/>
	<line class="st1" x1="2158.37" y1="617.27" x2="2158.37" y2="441.27"/>
	<polyline class="st1" points="1972.37,249.27 1971.37,965.27 1971.8,986.93 	"/>
	<polyline class="st1" points="1615.37,615.27 2017.37,615.27 2017.37,607.27 1973.13,565.42 	"/>
	<line class="st1" x1="1973.37" y1="199.27" x2="1973.37" y2="158.27"/>
	<polyline class="st1" points="1971.37,180.27 1126.37,177.27 1125.37,303.27 	"/>
	<line class="st1" x1="1075.37" y1="285.27" x2="1047.37" y2="285.27"/>
	<path class="st1" d="M2158.37,444.27"/>
	<line class="st1" x1="981.37" y1="285.27" x2="820.37" y2="283.27"/>
	<line class="st1" x1="782.37" y1="284.27" x2="693.37" y2="283.27"/>
	<polyline class="st1" points="719.37,279.27 723.37,99.27 1065.37,101.27 	"/>
	<path class="st1" d="M723.37,99.27h-487l-1-83l-211,20l62,1066l188-9l793,29v260c28.67-0.33,57.33-0.67,86-1c0,33.33,0,66.67,0,100
		h-29l3,142l132-1l11-29l98,2l-2-111c-12.33,0-24.67,0-37,0"/>
	<polyline class="st1" points="1295.37,1594.27 1295.37,1380.27 1186.37,1380.27 	"/>
	<line class="st1" x1="1487.37" y1="967.36" x2="1513.98" y2="967.36"/>
	<line class="st1" x1="1496.76" y1="965.01" x2="1495.98" y2="883.62"/>
	<line class="st1" x1="1459.2" y1="882.84" x2="1460.76" y2="971.27"/>
	<path class="st1" d="M1930.52,1040.53c28.37,0.07,56.74,0.13,85.11,0.2"/>
	<line class="st1" x1="1971.8" y1="1350.45" x2="1971.8" y2="1041.71"/>
	<line class="st1" x1="1969.46" y1="1164.97" x2="1954.2" y2="1164.97"/>
	<polyline class="st1" points="1895.5,1166.14 1880.24,1166.14 1880.24,1095.71 	"/>
	<path class="st1" d="M1880.24,1062.84v-21.13c-108,0-216,0-324,0l-0.43,21.35"/>
	<polyline class="st1" points="1555.65,1093.36 1555.9,1167.44 1536.28,1167.32 	"/>
	<line class="st1" x1="1476.41" y1="1167.32" x2="1456.46" y2="1167.32"/>
	<polyline class="st1" points="165.15,1027.62 167.5,1052.27 374.11,1039.36 490.33,1040.53 495.02,968.93 1051.46,968.93 	"/>
	<line class="st1" x1="1034" y1="436.77" x2="1033.46" y2="494.67"/>
	<line class="st1" x1="851.11" y1="479.01" x2="1033.46" y2="477.45"/>
	<line class="st1" x1="1034.24" y1="531.45" x2="1035.02" y2="743.53"/>
	<line class="st1" x1="1034.24" y1="777.19" x2="1034.24" y2="968.93"/>
	<line class="st1" x1="847.98" y1="723.97" x2="1035.02" y2="723.97"/>
	<line class="st1" x1="839.37" y1="1055.01" x2="839.37" y2="1025.27"/>
	<path class="st1" d="M1035.02,408.58c0.26-17.48,0.52-34.96,0.78-52.43H850.72v2.35c-0.57,203.39-1.13,406.78-1.7,610.17l-7.3,1.04
		l-0.52,21.91"/>
	<polyline class="st1" points="840.15,1033.1 1031.89,1032.32 1031.89,1024.88 	"/>
	<line class="st1" x1="975.54" y1="971.08" x2="975.15" y2="990.25"/>
	<line class="st1" x1="911.37" y1="970.49" x2="911.37" y2="988.49"/>
	<line class="st1" x1="1176.67" y1="799.1" x2="1301.11" y2="798.32"/>
	<line class="st1" x1="1331.63" y1="799.88" x2="1346.5" y2="799.88"/>
	<line class="st1" x1="1338.67" y1="615.19" x2="1339.46" y2="800.67"/>
	<line class="st1" x1="1376.24" y1="799.1" x2="1535.37" y2="800.27"/>
	<line class="st1" x1="1634.5" y1="733.36" x2="1633.72" y2="616.75"/>
	<line class="st1" x1="1972.59" y1="522.06" x2="2158.85" y2="521.27"/>
	<line class="st1" x1="1972.59" y1="446.93" x2="1999.98" y2="446.93"/>
	<line class="st1" x1="2031.28" y1="446.93" x2="2159.63" y2="448.49"/>
	<line class="st1" x1="1886.5" y1="180.06" x2="1887.28" y2="110.4"/>
	<line class="st1" x1="972.41" y1="285.71" x2="973.98" y2="102.58"/>
	<line class="st1" x1="445.72" y1="283.36" x2="657.8" y2="283.36"/>
	<line class="st1" x1="476.24" y1="99.45" x2="474.67" y2="282.58"/>
	<line class="st1" x1="206.24" y1="280.23" x2="413.63" y2="281.8"/>
	<polyline class="st1" points="225.02,281.8 226.59,100.23 236.37,99.27 	"/>
	<line class="st1" x1="41.89" y1="280.23" x2="172.59" y2="281.01"/>
	<line class="st1" x1="159.28" y1="277.88" x2="159.28" y2="255.97"/>
	<polyline class="st1" points="161.63,227.01 162.41,201.19 34.07,201.97 	"/>
	<line class="st1" x1="204.67" y1="200.4" x2="222.67" y2="200.4"/>
	<line class="st1" x1="2147.89" y1="1625.53" x2="2125.2" y2="1624.75"/>
	<line class="st1" x1="2048.5" y1="1626.32" x2="1952.24" y2="1627.1"/>
	<polyline class="st1" points="2085.28,1708.49 2083.72,1624.75 2094.67,1624.75 	"/>
	<line class="st1" x1="2153.37" y1="1552.75" x2="2082.15" y2="1554.32"/>
	<polyline class="st1" points="1975.67,1546.51 1975.72,1555.1 2050.07,1554.32 	"/>
	<path class="st1" d="M2046.04,1553.03c-0.2-13.67-0.39-27.35-0.59-41.02"/>
	<line class="st1" x1="1976.5" y1="1482.32" x2="2046.15" y2="1482.32"/>
	<polyline class="st1" points="2079.8,1505.01 2079.02,1424.4 2104.85,1424.4 	"/>
	<line class="st1" x1="2133.8" y1="1425.19" x2="2157.28" y2="1424.4"/>
	<line class="st1" x1="1974.93" y1="1425.97" x2="2044.59" y2="1425.19"/>
	<line class="st1" x1="2159.63" y1="1291.36" x2="2050.02" y2="1292.17"/>
	<polyline class="st1" points="2053.2,1257.71 2053.2,1231.88 2162.76,1230.32 	"/>
	<line class="st1" x1="2163.54" y1="1162.23" x2="2048.65" y2="1165.19"/>
	<path class="st1" d="M2052.66,1164.01c-0.03,12.03-0.07,24.07-0.1,36.1"/>
	<polyline class="st1" points="2053.2,1096.49 2052.8,1040.53 2161.98,1039.36 2159.63,1427.93 2153.76,1559.4 	"/>
	<line class="st1" x1="2053.2" y1="1139.53" x2="2053.2" y2="1123.88"/>
	<line class="st1" x1="2055.54" y1="1133.27" x2="2119.74" y2="1132.77"/>
	<line class="st1" x1="2104.35" y1="1161.21" x2="2104.35" y2="1135.51"/>
	<path class="st1" d="M2158.85,1134.06"/>
	<line class="st1" x1="2145.83" y1="1133.82" x2="2158.85" y2="1134.06"/>
	<line class="st1" x1="1972.59" y1="289.62" x2="2161.2" y2="291.19"/>
	<line class="st1" x1="1974.15" y1="709.1" x2="2161.98" y2="707.53"/>
	<polyline class="st1" points="2159.63,793.62 2059.46,794.4 2059.46,782.67 	"/>
	<line class="st1" x1="2060.24" y1="756.06" x2="2060.24" y2="709.88"/>
	<path class="st1" d="M2162.37,614.27c-7.43,0.04-14.87,0.09-22.3,0.13"/>
	<polyline class="st1" points="849.54,435.97 332.13,430.77 374.11,1039.36 	"/>
	<path class="st1" d="M148.59,738.84c0.42,5.91,0.84,11.82,1.26,17.73"/>
	<path class="st1" d="M352.98,728.27"/>
	<polyline class="st1" points="162.8,990.06 152.24,809.27 356.5,795.19 	"/>
	<line class="st1" x1="152.24" y1="809.27" x2="151.07" y2="783.45"/>
	<path class="st1" d="M148.87,742.19c-0.52-6.65-1.04-13.3-1.57-19.96"/>
	<path class="st1" d="M145.59,693.06c-4.13-63.43-8.26-126.87-12.39-190.3"/>
	<line class="st1" x1="133.85" y1="513.84" x2="130.72" y2="466.88"/>
	<line class="st1" x1="135.02" y1="493.88" x2="335.76" y2="480.97"/>
	<polyline class="st1" points="331.85,431.27 330.67,368.27 124.85,380.01 128.76,440.27 	"/>
	<line class="st1" x1="1973.37" y1="110.4" x2="1973.37" y2="132.32"/>
	<path class="st1" d="M1387.98,105.19c0,5.39,0,10.78,0,16.17"/>
	<line class="st1" x1="1386.41" y1="176.14" x2="1386.41" y2="165.6"/>
	<line class="st1" x1="1141.72" y1="1298.4" x2="1142.76" y2="1165.88"/>
	<line class="st1" x1="1291.46" y1="1298.93" x2="1291.98" y2="1166.4"/>
	<line class="st1" x1="352.98" y1="728.27" x2="212.5" y2="738.06"/>
	<path class="st1" d="M181.2,739.62c-11.36,0.79-22.72,1.58-34.09,2.37"/>
	<polyline class="st1" points="2158.59,403.1 2160.04,111.08 1065.37,101.27 1062.37,282.27 	"/>
	<line class="st1" x1="1420.07" y1="1555.88" x2="1418.89" y2="1481.14"/>
	<path class="st1" d="M1460.45,1167.71c1.02,127.34,2.04,254.68,3.07,382.03"/>
	<line class="st1" x1="1279.98" y1="968.93" x2="1301.11" y2="968.93"/>
	<line class="st1" x1="1295.37" y1="1380.27" x2="1295.37" y2="1358.67"/>
	<line class="st1" x1="1215.8" y1="1244.8" x2="1215.8" y2="1226.01"/>
	<line class="st1" x1="1635.67" y1="880.88" x2="1600.85" y2="881.27"/>
	<line class="st1" x1="1537.37" y1="881.27" x2="1569.15" y2="881.27"/>
	<path class="st1" d="M1418.5,1482.32"/>
	<line class="st1" x1="1467.02" y1="1545.71" x2="1957.97" y2="1545.73"/>
	<polyline class="st1" points="2015.11,1216.49 2014.59,1384.49 1972.98,1384.49 1976.31,1546.95 1961.34,1545.98 1944.8,1690.88 
		2142.02,1713.19 2150.24,1611.06 	"/>
	<line class="st1" x1="1972.98" y1="1164.58" x2="2018.76" y2="1164.19"/>
	<line class="st1" x1="2017.98" y1="1141.49" x2="2017.98" y2="1083.58"/>
	<path class="st1" d="M2017.59,1036.75c0,8.43,0,16.87,0,25.3"/>
	<path class="st1" d="M1972.2,1105.88"/>
	<line class="st1" x1="2016.41" y1="1106.67" x2="1972.2" y2="1105.88"/>
	<line class="st1" x1="1462.33" y1="1056.19" x2="1462.33" y2="1037.8"/>
	<line class="st1" x1="1599.67" y1="1673.27" x2="1650.15" y2="1672.1"/>
	<line class="st1" x1="1807.46" y1="1672.1" x2="1859.11" y2="1672.1"/>
	<path class="st2" d="M910.98,1032.32"/>
	<line class="st1" x1="911.76" y1="1033.1" x2="911.37" y2="1023.71"/>
	<line class="st1" x1="974.76" y1="1031.53" x2="974.76" y2="1024.49"/>
	<line class="st1" x1="1030.62" y1="972.45" x2="1030.91" y2="995.14"/>
	<path class="st2" d="M1570.33,1593.45c-48.98,0-97.96,0-146.93,0c-0.13-14.61-0.26-29.22-0.39-43.83"/>
	<path class="st2" d="M1451.96,1504.72"/>
	<path class="st2" d="M1451.52,1505.16"/>
	<path class="st2" d="M1442.37,1495.43"/>
	<path class="st2" d="M1429.95,1506.09"/>
	<path class="st2" d="M1432.62,1504.98"/>
	<path class="st2" d="M1568.76,1571.53h-101.88c-13.8,0-25.02-11.11-25.16-24.91c-0.08-16.84-0.16-33.68-0.23-50.52"/>
	<line class="st2" x1="1441.78" y1="1496.83" x2="1450.15" y2="1505.19"/>
	<line class="st2" x1="1441.22" y1="1496.82" x2="1432.86" y2="1505.18"/>
	<g>
		<g>
			<path d="M1352.34,1669.51c-1.05-1-1.57-2.52-1.57-4.55c0-2.13,0.52-3.73,1.55-4.78c1.04-1.05,2.59-1.58,4.68-1.58v2.52
				c-1.62,0-2.43,1.05-2.43,3.16c0,1.88,0.84,2.83,2.52,2.83h1.93v3.91h-1.93C1354.97,1671.02,1353.39,1670.52,1352.34,1669.51z
				 M1357.56,1661.13h-4.28v-34.25h4.28V1661.13z"/>
			<path d="M1365.11,1626.88h4.28v34.25h-4.28V1626.88z M1367.19,1626.88h17.51v4.57h-17.51V1626.88z M1367.19,1641.84h15.2v4.57
				h-15.2V1641.84z M1367.19,1656.56h17.51v4.57h-17.51V1656.56z M1373.14,1619.27h4.28v4.8h-4.28V1619.27z"/>
			<path d="M1390.95,1660.37c-1.36-0.74-2.46-1.77-3.31-3.11l3.5-2.83c0.39,0.77,0.96,1.37,1.7,1.79s1.6,0.64,2.58,0.64
				c1.66,0,2.95-0.58,3.87-1.74c0.92-1.16,1.37-2.79,1.37-4.9v-23.34h4.28v23.36c0,2.37-0.37,4.4-1.11,6.08
				c-0.74,1.68-1.82,2.96-3.25,3.84c-1.43,0.88-3.15,1.32-5.16,1.32C1393.79,1661.48,1392.3,1661.11,1390.95,1660.37z"/>
			<path d="M1416.76,1661.13h-4.28v-34.25h4.28V1661.13z"/>
			<path d="M1446.22,1626.88h4v34.25h-4.17v-25.65l0.21,1.51l-7.51,19.38h-2.98l-7.51-18.91l0.21-1.98v25.65h-4.17v-34.25h4
				l8.95,22.61L1446.22,1626.88z"/>
			<path d="M1466.08,1626.88h3.65l11.24,34.25h-4.61l-8.45-27.63l-8.45,27.63h-4.61L1466.08,1626.88z M1460.02,1649.05h16.04v4.57
				h-16.04V1649.05z"/>
			<path d="M1490.57,1661.01c-1.31-0.31-2.54-0.79-3.68-1.41c-1.14-0.63-2.21-1.41-3.2-2.36l2.66-3.67
				c1.16,1.13,2.44,1.98,3.84,2.54c1.4,0.57,2.92,0.85,4.55,0.85c2.21,0,3.92-0.46,5.14-1.38c1.22-0.92,1.82-2.22,1.82-3.9v-0.02
				c0-1.19-0.28-2.14-0.83-2.84c-0.55-0.7-1.27-1.22-2.14-1.55c-0.87-0.34-2-0.65-3.39-0.93c-0.04-0.02-0.09-0.02-0.14-0.02
				c-0.05,0-0.09-0.01-0.14-0.02l-0.31-0.07c-2.04-0.39-3.7-0.84-4.98-1.33s-2.37-1.4-3.28-2.71c-0.91-1.31-1.36-3.17-1.36-5.59
				v-0.02c0-2.12,0.42-3.93,1.27-5.43c0.85-1.5,2.08-2.64,3.7-3.43s3.57-1.18,5.85-1.18c1.09,0,2.16,0.13,3.22,0.4
				c1.06,0.27,2.1,0.66,3.12,1.19c1.03,0.53,2.04,1.19,3.03,1.99l-2.43,3.82c-1.16-0.96-2.32-1.68-3.47-2.16
				c-1.15-0.48-2.31-0.72-3.47-0.72c-2.08,0-3.7,0.47-4.85,1.4c-1.15,0.93-1.73,2.26-1.73,3.97v0.02c0,1.18,0.3,2.1,0.89,2.78
				s1.33,1.17,2.22,1.5c0.89,0.32,2.12,0.66,3.7,1c0.06,0.02,0.11,0.03,0.16,0.04s0.1,0.02,0.16,0.04c0.07,0.02,0.15,0.03,0.23,0.05
				s0.16,0.03,0.23,0.05c1.84,0.42,3.39,0.93,4.62,1.51c1.24,0.58,2.27,1.52,3.1,2.81c0.83,1.3,1.25,3.07,1.25,5.31v0.05
				c0,2.09-0.44,3.87-1.32,5.36s-2.16,2.61-3.83,3.39c-1.67,0.78-3.69,1.17-6.05,1.17
				C1493.28,1661.48,1491.89,1661.32,1490.57,1661.01z"/>
		</g>
	</g>
	<path class="st3" d="M1535.89,179.27"/>
	<path class="st3" d="M1535.89,613.62"/>
	<path class="st3" d="M1536.28,511.1"/>
	<path class="st3" d="M1536.28,278.67"/>
	<path class="st3" d="M1129.43,550.23"/>
	<path class="st3" d="M1285.17,394.49"/>
	<path class="st3" d="M1285.17,394.49"/>
	<path class="st3" d="M1129.43,238.75"/>
	<path class="st3" d="M1966.57,233.67"/>
	<path class="st3" d="M1810.83,389.4"/>
	<path class="st3" d="M1966.57,545.14"/>
</g>
<g id="Layer_3">
	<line class="st2" x1="1393.85" y1="1601.29" x2="1392.68" y2="1496.68"/>
	<line class="st2" x1="1384" y1="1507.37" x2="1392.49" y2="1497.35"/>
	<line class="st2" x1="1401.19" y1="1508.39" x2="1392.9" y2="1497.28"/>
</g>
<g id="Layer_4">
	<line class="st2" x1="1117.76" y1="1286.71" x2="1116.81" y2="1182.21"/>
	<line class="st2" x1="1108.43" y1="1193.56" x2="1117.22" y2="1182.85"/>
	<line class="st2" x1="1125.39" y1="1193.55" x2="1116.86" y2="1183.12"/>
	<line class="st2" x1="1087.67" y1="1181.76" x2="1088.62" y2="1286.26"/>
	<line class="st2" x1="1097.01" y1="1274.9" x2="1088.21" y2="1285.62"/>
	<line class="st2" x1="1080.04" y1="1274.91" x2="1088.58" y2="1285.34"/>
	<line class="st2" x1="995.76" y1="1060.31" x2="891.25" y2="1059.72"/>
	<line class="st2" x1="902.49" y1="1068.28" x2="891.9" y2="1059.32"/>
	<line class="st2" x1="902.72" y1="1051.31" x2="892.17" y2="1059.69"/>
	<line class="st2" x1="890.38" y1="1088.85" x2="994.88" y2="1089.43"/>
	<line class="st2" x1="983.65" y1="1080.88" x2="994.23" y2="1089.83"/>
	<line class="st2" x1="983.41" y1="1097.84" x2="993.96" y2="1089.47"/>
	<line class="st2" x1="1032.26" y1="243.18" x2="1033.77" y2="138.68"/>
	<line class="st2" x1="1025.12" y1="149.84" x2="1034.17" y2="139.33"/>
	<line class="st2" x1="1042.08" y1="150.22" x2="1033.8" y2="139.6"/>
	<line class="st2" x1="1004.65" y1="137.55" x2="1003.14" y2="242.04"/>
	<line class="st2" x1="1011.79" y1="230.88" x2="1002.75" y2="241.39"/>
	<line class="st2" x1="994.83" y1="230.5" x2="1003.12" y2="241.13"/>
</g>
</svg>
