<?xml version="1.0" encoding="utf-8"?>
<!-- Generator: Adobe Illustrator 25.2.1, SVG Export Plug-In . SVG Version: 6.00 Build 0)  -->
<svg version="1.1" xmlns="http://www.w3.org/2000/svg" xmlns:xlink="http://www.w3.org/1999/xlink" x="0px" y="0px"
	 viewBox="0 0 2159.39 1967.36" style="enable-background:new 0 0 2159.39 1967.36;" xml:space="preserve">
<style type="text/css">
	.st0{fill:#EDEDED;stroke:#D3D3D3;stroke-width:2;stroke-miterlimit:10;}
	.st1{fill:none;stroke:#000000;stroke-width:8;stroke-miterlimit:10;}
	.st2{fill:none;stroke:#000000;stroke-width:2;stroke-miterlimit:10;}
</style>
<g id="Layer_4">
	<path class="st0" d="M2136.35,1000.89c0.35-53.39,0.7-106.78,1.04-160.17c-38.78-0.35-77.57-0.7-116.35-1.04
		c-0.72,53.46-1.43,106.91-2.15,160.37C2058.04,1000.32,2097.2,1000.6,2136.35,1000.89z"/>
	<path class="st0" d="M2021.04,820.36c0-26.96,0-53.91,0-80.87c39.13-0.17,78.26-0.35,117.39-0.52c0,27.65,0,55.3,0,82.96
		C2099.3,821.41,2060.17,820.89,2021.04,820.36z"/>
	<path class="st0" d="M2020,720.71c0.52-31.13,1.04-62.26,1.57-93.39c39.83-0.17,79.65-0.35,119.48-0.52
		c-0.7,31.83-1.39,63.65-2.09,95.48C2099.3,721.75,2059.65,721.23,2020,720.71z"/>
	<polygon class="st0" points="2058.02,1173.78 2059.59,1018.82 2138.63,1018.82 2136.28,1176.12 	"/>
	<path class="st0" d="M1965.67,1175.34l58.7-0.78l0.78-47.74l16.43-0.78l0.78-108h-39.13c0.78-131.13,1.57-262.26,2.35-393.39
		c-12.43,0-24.87,0-37.3,0C1967.41,808.21,1966.54,991.78,1965.67,1175.34z"/>
	<path class="st0" d="M1969.07,610.56c57.15,0.02,114.3,0.04,171.46,0.07c1.02-91.76,2.04-183.52,3.07-275.28l-172.7-1.04
		L1969.07,610.56z"/>
	<path class="st0" d="M1952.11,401.08l1.04-65.74l-829.57-2.09c-0.07,20.8-0.13,41.61-0.2,62.41
		C1399.63,397.47,1675.87,399.28,1952.11,401.08z"/>
	<path class="st0" d="M1061.76,331.69c14.74,0.26,29.48,0.52,44.22,0.78c-1.63,283.11-3.26,566.22-4.89,849.33
		c-22.7,0-45.39,0-68.09,0c1.15-222.15,2.3-444.3,3.46-666.46c7.52,0.09,15.04,0.17,22.57,0.26
		C1059.93,454.3,1060.85,392.99,1061.76,331.69z"/>
	<polygon class="st0" points="1032.02,568.04 1032.41,516.39 111.93,506.47 115.59,586.82 331.59,579.52 836.11,568.56 	"/>
	<polygon class="st0" points="333.15,642.12 330.54,583.69 834.02,573.25 833.5,645.78 	"/>
	<path class="st0" d="M971.57,497.02c0.65-55.96,1.3-111.91,1.96-167.87c23.48-0.13,46.96-0.26,70.43-0.39
		c-0.52,56.35-1.04,112.7-1.57,169.04C1018.78,497.54,995.17,497.28,971.57,497.02z"/>
	<polygon class="st0" points="720.28,493.95 723.41,326.99 958.2,328.04 956.63,497.08 	"/>
	<polygon class="st0" points="474.02,493.43 477.67,325.95 707.24,328.56 704.63,493.95 	"/>
	<polygon class="st0" points="227.11,490.17 229.85,324.25 461.11,326.99 458.37,492.52 	"/>
	<polygon class="st0" points="37.85,488.21 28.98,309.78 27.93,42.65 219.93,34.82 223.07,308.21 214.2,308.73 212.11,489.25 	"/>
	<polygon class="st0" points="132.8,703.17 319.59,692.21 314.89,594.65 125.5,603.52 	"/>
	<polygon class="st0" points="38.89,504.91 82.72,1314.65 153.67,1311.52 134.37,957.78 106.98,507.39 	"/>
	<polygon class="st0" points="148.46,953.08 334.2,941.08 321.15,707.34 133.33,718.82 	"/>
	<polygon class="st0" points="152.63,1018.3 338.89,1007.86 336.8,956.73 148.98,966.65 	"/>
	<polygon class="st0" points="166.72,1262.47 351.41,1252.04 339.93,1021.43 152.63,1034.99 	"/>
	<polygon class="st0" points="156.8,1312.04 310.72,1305.25 475.59,1313.08 473.5,1270.3 358.72,1266.12 154.72,1278.65 	"/>
	<polygon class="st0" points="825.8,1198.69 826.33,1324.95 490.85,1312.95 488.76,1257.65 493.46,1193.99 	"/>
	<path class="st0" d="M846.54,1327.95c62.61,1.57,125.22,3.13,187.83,4.7v-71.22H844.98C845.5,1283.6,846.02,1305.78,846.54,1327.95
		z"/>
	<path class="st0" d="M842.04,1245.97c18.78-0.13,37.57-0.26,56.35-0.39c0.26-16.17,0.52-32.35,0.78-48.52
		c-18.65-0.13-37.3-0.26-55.96-0.39C842.83,1213.1,842.43,1229.54,842.04,1245.97z"/>
	<path class="st0" d="M912.87,1245.06c17.13-0.35,34.26-0.7,51.39-1.04c-0.61-15.74-1.22-31.48-1.83-47.22c-16.43,0-32.87,0-49.3,0
		C913.04,1212.89,912.96,1228.97,912.87,1245.06z"/>
	<path class="st0" d="M977.83,1244.28c14-0.26,28-0.52,42-0.78c0-15.22,0-30.43,0-45.65c-14.17,0.09-28.35,0.17-42.52,0.26
		C977.48,1213.49,977.65,1228.89,977.83,1244.28z"/>
	<polygon class="st0" points="843.41,1181.6 1016.63,1181.08 1016.63,954.65 845.5,954.12 	"/>
	<polygon class="st0" points="846.02,937.95 1016.63,935.34 1017.67,708.39 847.59,706.82 	"/>
	<polygon class="st0" points="848.11,688.56 1016.63,690.12 1017.67,585.78 848.11,584.73 	"/>
	<path class="st0" d="M1040.17,1331.67c8.17,0.87,16.35,1.74,24.52,2.61c-0.17,15.13-0.35,30.26-0.52,45.39
		c75.37,0.76,150.74,1.52,226.11,2.28l0.78,52.43l149.48,1.57v-244.17l-319.3-2.35l-0.78,11.74c-27.28-0.15-54.57-0.3-81.85-0.46
		C1039.13,1244.36,1039.65,1288.02,1040.17,1331.67z"/>
	<polygon class="st0" points="1063.85,1506.12 1119.93,1505.34 1119.67,1386.12 1063.07,1386.39 	"/>
	<polygon class="st0" points="1449.93,1247.34 2023.59,1253.6 2023.59,1191.78 1449.15,1193.34 	"/>
	<polygon class="st0" points="1458.54,1174.56 1618.2,1174.56 1621.33,1114.3 1458.54,1112.73 	"/>
	<polygon class="st0" points="1458.93,1368.65 1459.72,1267.69 1534.85,1266.91 1534.85,1367.86 	"/>
	<polygon class="st0" points="1874.89,1371.78 1873.33,1268.47 1950.02,1267.69 1950.02,1371.78 	"/>
	<polygon class="st0" points="2022.54,1504.56 2024.11,1269.78 2135.24,1268.73 2135.76,1504.04 	"/>
	<polygon class="st0" points="1964.11,1259.86 2007.41,1259.34 2008.46,1633.43 1966.2,1636.56 	"/>
	<polygon class="st0" points="2022.54,1637.08 2137.33,1638.65 2136.8,1521.25 2020.98,1520.21 	"/>
	<path class="st0" d="M1564,1806.97c8,0.35,16,0.7,24,1.04c0.35,23.83,0.7,47.65,1.04,71.48c109.89,0.59,219.78,1.17,329.67,1.76
		l23.48-109.17c-126.07,0.15-252.13,0.3-378.2,0.46C1564,1784.02,1564,1795.49,1564,1806.97z"/>
	<polygon class="st0" points="1948.46,1839.52 1958.37,1772.73 1967.76,1772.73 1966.72,1652.73 2135.76,1653.78 2119.07,1837.95 	
		"/>
	<path class="st0" d="M1926.54,1906.82c2.09-5.59,4.17-11.17,6.26-16.76c3.13-11.8,6.26-23.61,9.39-35.41l174.78-0.52l-7.3,87.13
		L1926.54,1906.82z"/>
	<polygon class="st0" points="2041.59,1251.25 2041.59,1191.78 2133.93,1191.78 2135.5,1251.25 	"/>
	<polygon class="st0" points="1292.43,1439.67 1293.22,1512.45 1063.13,1513.23 1063.91,1588.36 1116.35,1588.36 1117.13,1831.75 
		1228.26,1832.54 1252.52,1803.58 1546.78,1806.71 1546.78,1772.28 1444.26,1773.06 1441.13,1441.23 	"/>
	<path class="st0" d="M1555.78,1269.45c0.39,39.91,0.78,79.83,1.17,119.74c-31.59,0.9-63.19,1.8-94.78,2.7
		c0.68,120.01,1.36,240.03,2.04,360.04c161.22-0.39,322.43-0.78,483.65-1.17c-1.17-119.35-2.35-238.7-3.52-358.04
		c-29.74-0.39-59.48-0.78-89.22-1.17c-0.78-40.3-1.57-80.61-2.35-120.91C1753.78,1270.23,1654.78,1269.84,1555.78,1269.45z"/>
</g>
<g id="Layer_2">
	<path class="st1" d="M480.28,1261.95c1.91-24.87,3.83-49.74,5.74-74.61l559.83,2.61"/>
	<line class="st1" x1="1110.54" y1="1193.6" x2="1114.2" y2="393.52"/>
	<polyline class="st1" points="1116.54,404.47 1961.76,409.17 1957.85,1183.17 1601.76,1183.95 	"/>
	<line class="st1" x1="1575.15" y1="1183.95" x2="1496.11" y2="1183.17"/>
	<polyline class="st1" points="1470.28,1183.17 1449.93,1183.17 1449.93,1093.95 1111.85,1092.39 	"/>
	<polyline class="st1" points="1452.28,1102.56 1629.15,1104.12 1627.59,1183.95 	"/>
	<line class="st1" x1="1957.85" y1="1183.17" x2="1982.89" y2="1183.17"/>
	<polyline class="st1" points="2013.41,1183.17 2143.33,1183.17 2144.11,1646.47 2115.93,1950.12 1917.93,1911.78 1925.5,1890.12 
		1581.41,1887.52 1580.63,1814.73 1254.28,1812.39 1234.72,1839.78 1108.72,1838.21 1109.5,1596.39 1056.28,1595.6 1054.72,1343.6 
		310.46,1313.08 74.11,1320.91 20.5,305.86 20.5,34.69 229.46,25.3 229.46,315.25 2152.33,325.82 2143.33,1183.17 	"/>
	<polyline class="st1" points="2032.2,1135.04 2049.8,1134.65 2050.2,1010.6 	"/>
	<polyline class="st1" points="2144.89,1010.6 2011.07,1009.04 2011.46,913.17 	"/>
	<line class="st1" x1="2011.46" y1="883.82" x2="2012.24" y2="812.99"/>
	<line class="st1" x1="2014.59" y1="830.21" x2="2147.24" y2="830.99"/>
	<line class="st1" x1="2012.37" y1="782.99" x2="2012.11" y2="704.99"/>
	<line class="st1" x1="2014.46" y1="730.3" x2="2147.76" y2="730.3"/>
	<polyline class="st1" points="2012.11,675.52 2012.37,618.65 2147.76,618.65 	"/>
	<line class="st1" x1="1961.76" y1="409.17" x2="1961.76" y2="390.78"/>
	<line class="st1" x1="1961.76" y1="359.86" x2="1962.02" y2="324.91"/>
	<line class="st1" x1="1115.04" y1="320.02" x2="1114.78" y2="356.8"/>
	<polyline class="st1" points="1053.41,319.95 1050.8,506.21 1037.3,506.41 	"/>
	<line class="st1" x1="974.89" y1="505.43" x2="813.67" y2="503.86"/>
	<line class="st1" x1="775.33" y1="503.86" x2="682.98" y2="503.08"/>
	<line class="st1" x1="712.33" y1="501.52" x2="715.85" y2="319.17"/>
	<line class="st1" x1="650.89" y1="503.47" x2="437.63" y2="501.12"/>
	<line class="st1" x1="466.2" y1="499.17" x2="469.72" y2="317.99"/>
	<line class="st1" x1="406.33" y1="501.12" x2="200.11" y2="497.21"/>
	<polyline class="st1" points="220.07,494.86 221.63,314.86 238.07,315.25 	"/>
	<line class="st1" x1="165.28" y1="497.6" x2="31.46" y2="495.65"/>
	<line class="st1" x1="835.07" y1="1274.21" x2="834.8" y2="1242.25"/>
	<polyline class="st1" points="834.8,1212.91 835.33,1189.95 841.07,575.86 1026.54,576.65 1025.76,628.3 	"/>
	<path class="st1" d="M837.67,1253.08l189.39-1.57c0.02-4.46,0.04-8.91,0.07-13.37"/>
	<line class="st1" x1="970" y1="1189.49" x2="970.26" y2="1209.32"/>
	<line class="st1" x1="906.35" y1="1189.75" x2="906.35" y2="1210.1"/>
	<line class="st1" x1="1026.54" y1="1191.97" x2="1026.54" y2="1214.47"/>
	<line class="st1" x1="1024.2" y1="654.91" x2="1024.98" y2="715.17"/>
	<line class="st1" x1="1024.98" y1="750.39" x2="1025.76" y2="964.04"/>
	<line class="st1" x1="1024.2" y1="998.47" x2="1024.2" y2="1188.65"/>
	<line class="st1" x1="840.28" y1="944.47" x2="1026.54" y2="945.25"/>
	<line class="st1" x1="1024.98" y1="697.95" x2="841.07" y2="697.95"/>
	<polyline class="st1" points="840.28,654.12 326.89,649.43 323.76,586.82 118.72,596.21 122.92,655.69 	"/>
	<line class="st1" x1="124.2" y1="685.43" x2="139.07" y2="910.82"/>
	<line class="st1" x1="139.85" y1="942.12" x2="142.2" y2="970.3"/>
	<line class="st1" x1="143.5" y1="959.6" x2="176.63" y2="957.78"/>
	<line class="st1" x1="204.28" y1="956.47" x2="341.24" y2="948.12"/>
	<path class="st1" d="M126.54,711.25"/>
	<polyline class="st1" points="326.89,649.43 361.33,1258.3 158.63,1270.04 157.16,1243.62 	"/>
	<line class="st1" x1="155.5" y1="1209.78" x2="144.54" y2="999.25"/>
	<line class="st1" x1="148.46" y1="1026.65" x2="348.8" y2="1014.12"/>
	<line class="st1" x1="126.54" y1="711.25" x2="329.24" y2="698.73"/>
	<line class="st1" x1="361.33" y1="1258.3" x2="481.07" y2="1257.52"/>
	<polygon class="st1" points="1126.72,1504.04 1282.46,1504.04 1281.67,1388.99 1125.93,1388.99 	"/>
	<polyline class="st1" points="1452.28,1739.6 1452.28,1765.43 1960.2,1763.86 1956.28,1259.08 1936.33,1259.08 	"/>
	<line class="st1" x1="1901.5" y1="1259.08" x2="1495.33" y2="1256.73"/>
	<polyline class="st1" points="1462.65,1257.32 1450.72,1257.52 1451.83,1697.15 	"/>
	<polyline class="st1" points="1454.63,1378.82 1544.63,1378.82 1543.85,1258.3 	"/>
	<polyline class="st1" points="1953.93,1380.39 1866.28,1378.82 1864.72,1260.65 	"/>
	<polyline class="st1" points="1926.02,1889.08 1936.98,1846.82 1975.85,1846.04 	"/>
	<line class="st1" x1="2011.07" y1="1846.82" x2="2124.54" y2="1846.04"/>
	<line class="st1" x1="2144.11" y1="1646.47" x2="2008.72" y2="1643.34"/>
	<line class="st1" x1="1962.54" y1="1644.12" x2="1975.85" y2="1643.34"/>
	<line class="st1" x1="2014.98" y1="1642.56" x2="2014.2" y2="1594.04"/>
	<line class="st1" x1="2014.2" y1="1561.95" x2="2013.67" y2="1465.43"/>
	<polyline class="st1" points="2012.63,1435.69 2014.72,1260.91 2143.59,1259.86 	"/>
	<line class="st1" x1="2014.72" y1="1512.39" x2="2143.59" y2="1512.39"/>
	<line class="st1" x1="2031.41" y1="1260.65" x2="2031.93" y2="1223.6"/>
	<line class="st1" x1="2031.67" y1="1182.39" x2="2031.93" y2="1193.86"/>
	<line class="st1" x1="1952.37" y1="1765.04" x2="1946.11" y2="1793.6"/>
	<line class="st1" x1="1934.89" y1="1856.47" x2="1940.63" y2="1826.21"/>
	<polygon class="st1" points="1274.89,1708.04 1289.5,1708.56 1289.5,1693.95 1273.33,1693.43 	"/>
	<polygon class="st1" points="1273.85,1602.12 1289.5,1601.6 1289.5,1585.95 1272.28,1585.43 	"/>
	<path class="st1" d="M480.41,1259.86c-0.04,8.87-0.09,17.74-0.13,26.61"/>
	<line class="st1" x1="965.5" y1="320.73" x2="963.93" y2="505.43"/>
	<line class="st1" x1="1962.54" y1="617.86" x2="1972.72" y2="617.86"/>
	<line class="st1" x1="2012.37" y1="618.65" x2="2001.93" y2="618.65"/>
	<line class="st1" x1="1555.65" y1="1815.06" x2="1555.91" y2="1799.41"/>
	<line class="st1" x1="1556.17" y1="1767.58" x2="1556.17" y2="1775.93"/>
	<line class="st1" x1="905.63" y1="1252.23" x2="905.83" y2="1237.75"/>
	<line class="st1" x1="970.98" y1="1251.06" x2="970.98" y2="1238.73"/>
</g>
<g id="Layer_3">
	<line class="st2" x1="894.99" y1="1306.4" x2="999.47" y2="1308.75"/>
	<line class="st2" x1="988.38" y1="1300.01" x2="998.81" y2="1309.14"/>
	<line class="st2" x1="987.86" y1="1316.97" x2="998.55" y2="1308.77"/>
	<line class="st2" x1="997.93" y1="1283.57" x2="893.44" y2="1282.02"/>
	<line class="st2" x1="904.59" y1="1290.67" x2="894.09" y2="1281.62"/>
	<line class="st2" x1="904.99" y1="1273.71" x2="894.36" y2="1281.99"/>
	<line class="st2" x1="1101.96" y1="1500.5" x2="1102.34" y2="1396"/>
	<line class="st2" x1="1093.81" y1="1407.25" x2="1102.75" y2="1396.64"/>
	<line class="st2" x1="1110.78" y1="1407.45" x2="1102.38" y2="1396.91"/>
	<line class="st2" x1="1077.2" y1="1398" x2="1077.61" y2="1502.51"/>
	<line class="st2" x1="1086.05" y1="1491.19" x2="1077.2" y2="1501.86"/>
	<line class="st2" x1="1069.09" y1="1491.12" x2="1077.56" y2="1501.59"/>
	<line class="st2" x1="996.95" y1="363.7" x2="994.61" y2="468.18"/>
	<line class="st2" x1="1003.35" y1="457.09" x2="994.22" y2="467.53"/>
	<line class="st2" x1="986.39" y1="456.57" x2="994.59" y2="467.26"/>
	<line class="st2" x1="1019.79" y1="466.65" x2="1021.34" y2="362.15"/>
	<line class="st2" x1="1012.69" y1="373.31" x2="1021.74" y2="362.8"/>
	<line class="st2" x1="1029.65" y1="373.7" x2="1021.37" y2="363.07"/>
	<line class="st2" x1="2104.3" y1="1143.85" x2="2106.65" y2="1039.37"/>
	<line class="st2" x1="2097.91" y1="1050.46" x2="2107.04" y2="1040.02"/>
	<line class="st2" x1="2114.86" y1="1050.98" x2="2106.67" y2="1040.29"/>
	<line class="st2" x1="2081.47" y1="1040.9" x2="2079.91" y2="1145.4"/>
	<line class="st2" x1="2088.57" y1="1134.24" x2="2079.52" y2="1144.75"/>
	<line class="st2" x1="2071.61" y1="1133.85" x2="2079.89" y2="1144.48"/>
	<line class="st2" x1="1448.37" y1="1182.39" x2="1114.98" y2="1181.6"/>
</g>
</svg>
